<svg width="14" height="14" viewBox="0 0 14 14" fill="none" xmlns="http://www.w3.org/2000/svg">
<path d="M3.86071 12.8826L0.333382 13.6666L1.11738 10.1393C0.60107 9.17351 0.331733 8.09502 0.333382 6.99992C0.333382 3.31792 3.31805 0.333252 7.00005 0.333252C10.682 0.333252 13.6667 3.31792 13.6667 6.99992C13.6667 10.6819 10.682 13.6666 7.00005 13.6666C5.90495 13.6682 4.82646 13.3989 3.86071 12.8826ZM4.05405 11.4739L4.48938 11.7073C5.26175 12.12 6.12431 12.3351 7.00005 12.3333C8.05488 12.3333 9.08603 12.0205 9.96309 11.4344C10.8402 10.8484 11.5237 10.0154 11.9274 9.0409C12.3311 8.06636 12.4367 6.994 12.2309 5.95944C12.0251 4.92487 11.5172 3.97456 10.7713 3.22868C10.0254 2.4828 9.0751 1.97485 8.04053 1.76906C7.00596 1.56328 5.93361 1.66889 4.95907 2.07256C3.98453 2.47623 3.15158 3.15982 2.56554 4.03688C1.97951 4.91394 1.66671 5.94509 1.66671 6.99992C1.66671 7.88925 1.88338 8.74525 2.29338 9.51059L2.52605 9.94592L2.08938 11.9106L4.05405 11.4739Z" fill="#A2A8B0"/>
</svg>
