<svg width="22" height="20" viewBox="0 0 22 20" fill="none" xmlns="http://www.w3.org/2000/svg">
<path d="M1 10.3501H6.79999C8.32999 10.3501 9.38 11.5101 9.38 12.9301V16.1501C9.38 17.5701 8.32999 18.7301 6.79999 18.7301H3.58002C2.16002 18.7301 1 17.5701 1 16.1501V10.3501" stroke="#242424" stroke-width="1.5" stroke-linecap="round" stroke-linejoin="round"/>
<path d="M1 10.35C1 4.29998 2.13003 3.30003 5.53003 1.28003" stroke="#242424" stroke-width="1.5" stroke-linecap="round" stroke-linejoin="round"/>
<path d="M12.6299 10.3501H18.4299C19.9599 10.3501 21.0099 11.5101 21.0099 12.9301V16.1501C21.0099 17.5701 19.9599 18.7301 18.4299 18.7301H15.2099C13.7899 18.7301 12.6299 17.5701 12.6299 16.1501V10.3501" stroke="#242424" stroke-width="1.5" stroke-linecap="round" stroke-linejoin="round"/>
<path d="M12.6299 10.35C12.6299 4.29998 13.7599 3.30003 17.1599 1.28003" stroke="#242424" stroke-width="1.5" stroke-linecap="round" stroke-linejoin="round"/>
</svg>
