<svg width="16" height="12" viewBox="0 0 16 12" fill="none" xmlns="http://www.w3.org/2000/svg">
<path d="M8.00002 0C11.5947 0 14.5854 2.58667 15.2127 6C14.586 9.41333 11.5947 12 8.00002 12C4.40535 12 1.41469 9.41333 0.787354 6C1.41402 2.58667 4.40535 0 8.00002 0ZM8.00002 10.6667C9.35967 10.6664 10.6789 10.2045 11.7419 9.35678C12.8049 8.50901 13.5486 7.32552 13.8514 6C13.5475 4.67554 12.8033 3.49334 11.7404 2.64668C10.6776 1.80003 9.35889 1.33902 8.00002 1.33902C6.64115 1.33902 5.32248 1.80003 4.2596 2.64668C3.19673 3.49334 2.45253 4.67554 2.14869 6C2.45142 7.32552 3.19514 8.50901 4.25812 9.35678C5.3211 10.2045 6.64037 10.6664 8.00002 10.6667ZM8.00002 9C7.20437 9 6.44131 8.68393 5.8787 8.12132C5.31609 7.55871 5.00002 6.79565 5.00002 6C5.00002 5.20435 5.31609 4.44129 5.8787 3.87868C6.44131 3.31607 7.20437 3 8.00002 3C8.79567 3 9.55873 3.31607 10.1213 3.87868C10.6839 4.44129 11 5.20435 11 6C11 6.79565 10.6839 7.55871 10.1213 8.12132C9.55873 8.68393 8.79567 9 8.00002 9ZM8.00002 7.66667C8.44205 7.66667 8.86597 7.49107 9.17853 7.17851C9.49109 6.86595 9.66669 6.44203 9.66669 6C9.66669 5.55797 9.49109 5.13405 9.17853 4.82149C8.86597 4.50893 8.44205 4.33333 8.00002 4.33333C7.55799 4.33333 7.13407 4.50893 6.82151 4.82149C6.50895 5.13405 6.33335 5.55797 6.33335 6C6.33335 6.44203 6.50895 6.86595 6.82151 7.17851C7.13407 7.49107 7.55799 7.66667 8.00002 7.66667Z" fill="#A2A8B0"/>
</svg>
